<mxfile host="app.diagrams.net" agent="Mozilla/5.0 (Windows NT 10.0; Win64; x64) AppleWebKit/537.36 (KHTML, like Gecko) Chrome/131.0.0.0 Safari/537.36" version="25.0.3">
  <diagram name="1 oldal" id="st_ey1xk9Z8aRC5v7-Gq">
    <mxGraphModel dx="1434" dy="780" grid="1" gridSize="10" guides="1" tooltips="1" connect="1" arrows="1" fold="1" page="1" pageScale="1" pageWidth="1169" pageHeight="827" math="0" shadow="0">
      <root>
        <mxCell id="0" />
        <mxCell id="1" parent="0" />
        <mxCell id="8Ar69CUbmzMsQiGeCUQe-12" style="edgeStyle=orthogonalEdgeStyle;rounded=0;orthogonalLoop=1;jettySize=auto;html=1;exitX=0.5;exitY=1;exitDx=0;exitDy=0;entryX=0.5;entryY=0;entryDx=0;entryDy=0;endArrow=none;endFill=0;" parent="1" source="8Ar69CUbmzMsQiGeCUQe-1" target="8Ar69CUbmzMsQiGeCUQe-2" edge="1">
          <mxGeometry relative="1" as="geometry" />
        </mxCell>
        <mxCell id="8Ar69CUbmzMsQiGeCUQe-13" style="edgeStyle=orthogonalEdgeStyle;rounded=0;orthogonalLoop=1;jettySize=auto;html=1;exitX=0.5;exitY=1;exitDx=0;exitDy=0;entryX=0.5;entryY=0;entryDx=0;entryDy=0;endArrow=none;endFill=0;" parent="1" source="8Ar69CUbmzMsQiGeCUQe-1" target="8Ar69CUbmzMsQiGeCUQe-3" edge="1">
          <mxGeometry relative="1" as="geometry" />
        </mxCell>
        <mxCell id="8Ar69CUbmzMsQiGeCUQe-14" style="edgeStyle=orthogonalEdgeStyle;rounded=0;orthogonalLoop=1;jettySize=auto;html=1;exitX=0.5;exitY=1;exitDx=0;exitDy=0;entryX=0.5;entryY=0;entryDx=0;entryDy=0;endArrow=none;endFill=0;" parent="1" source="8Ar69CUbmzMsQiGeCUQe-1" target="8Ar69CUbmzMsQiGeCUQe-4" edge="1">
          <mxGeometry relative="1" as="geometry" />
        </mxCell>
        <mxCell id="8Ar69CUbmzMsQiGeCUQe-15" style="edgeStyle=orthogonalEdgeStyle;rounded=0;orthogonalLoop=1;jettySize=auto;html=1;exitX=0.5;exitY=1;exitDx=0;exitDy=0;entryX=0.5;entryY=0;entryDx=0;entryDy=0;endArrow=none;endFill=0;" parent="1" source="8Ar69CUbmzMsQiGeCUQe-1" target="8Ar69CUbmzMsQiGeCUQe-5" edge="1">
          <mxGeometry relative="1" as="geometry" />
        </mxCell>
        <mxCell id="8Ar69CUbmzMsQiGeCUQe-16" style="edgeStyle=orthogonalEdgeStyle;rounded=0;orthogonalLoop=1;jettySize=auto;html=1;exitX=0.5;exitY=1;exitDx=0;exitDy=0;entryX=0.5;entryY=0;entryDx=0;entryDy=0;endArrow=none;endFill=0;" parent="1" source="8Ar69CUbmzMsQiGeCUQe-1" target="8Ar69CUbmzMsQiGeCUQe-6" edge="1">
          <mxGeometry relative="1" as="geometry" />
        </mxCell>
        <mxCell id="yUXptWM5Wb5vwHnEsTBS-2" style="edgeStyle=orthogonalEdgeStyle;rounded=0;orthogonalLoop=1;jettySize=auto;html=1;exitX=0.5;exitY=1;exitDx=0;exitDy=0;endArrow=none;endFill=0;" edge="1" parent="1" source="8Ar69CUbmzMsQiGeCUQe-1" target="yUXptWM5Wb5vwHnEsTBS-1">
          <mxGeometry relative="1" as="geometry" />
        </mxCell>
        <mxCell id="yUXptWM5Wb5vwHnEsTBS-6" style="edgeStyle=orthogonalEdgeStyle;rounded=0;orthogonalLoop=1;jettySize=auto;html=1;exitX=0.5;exitY=1;exitDx=0;exitDy=0;entryX=0.5;entryY=0;entryDx=0;entryDy=0;endArrow=none;endFill=0;" edge="1" parent="1" source="8Ar69CUbmzMsQiGeCUQe-1" target="yUXptWM5Wb5vwHnEsTBS-5">
          <mxGeometry relative="1" as="geometry" />
        </mxCell>
        <mxCell id="8Ar69CUbmzMsQiGeCUQe-1" value="Ora" style="rounded=0;whiteSpace=wrap;html=1;" parent="1" vertex="1">
          <mxGeometry x="525" y="150" width="120" height="60" as="geometry" />
        </mxCell>
        <mxCell id="8Ar69CUbmzMsQiGeCUQe-2" value="targy" style="ellipse;whiteSpace=wrap;html=1;" parent="1" vertex="1">
          <mxGeometry x="330" y="250" width="120" height="80" as="geometry" />
        </mxCell>
        <mxCell id="8Ar69CUbmzMsQiGeCUQe-17" style="edgeStyle=orthogonalEdgeStyle;rounded=0;orthogonalLoop=1;jettySize=auto;html=1;exitX=0.5;exitY=1;exitDx=0;exitDy=0;entryX=0.5;entryY=0;entryDx=0;entryDy=0;endArrow=none;endFill=0;" parent="1" source="8Ar69CUbmzMsQiGeCUQe-3" target="8Ar69CUbmzMsQiGeCUQe-8" edge="1">
          <mxGeometry relative="1" as="geometry">
            <Array as="points">
              <mxPoint x="450" y="340" />
              <mxPoint x="310" y="340" />
            </Array>
          </mxGeometry>
        </mxCell>
        <mxCell id="8Ar69CUbmzMsQiGeCUQe-18" style="edgeStyle=orthogonalEdgeStyle;rounded=0;orthogonalLoop=1;jettySize=auto;html=1;exitX=0.5;exitY=1;exitDx=0;exitDy=0;entryX=0.5;entryY=0;entryDx=0;entryDy=0;endArrow=none;endFill=0;" parent="1" source="8Ar69CUbmzMsQiGeCUQe-3" target="8Ar69CUbmzMsQiGeCUQe-9" edge="1">
          <mxGeometry relative="1" as="geometry" />
        </mxCell>
        <mxCell id="8Ar69CUbmzMsQiGeCUQe-19" style="edgeStyle=orthogonalEdgeStyle;rounded=0;orthogonalLoop=1;jettySize=auto;html=1;exitX=0.5;exitY=1;exitDx=0;exitDy=0;entryX=0.5;entryY=0;entryDx=0;entryDy=0;endArrow=none;endFill=0;" parent="1" source="8Ar69CUbmzMsQiGeCUQe-3" target="8Ar69CUbmzMsQiGeCUQe-10" edge="1">
          <mxGeometry relative="1" as="geometry">
            <Array as="points">
              <mxPoint x="525" y="340" />
              <mxPoint x="680" y="340" />
            </Array>
          </mxGeometry>
        </mxCell>
        <mxCell id="8Ar69CUbmzMsQiGeCUQe-3" value="idopont" style="ellipse;whiteSpace=wrap;html=1;" parent="1" vertex="1">
          <mxGeometry x="465" y="250" width="120" height="80" as="geometry" />
        </mxCell>
        <mxCell id="8Ar69CUbmzMsQiGeCUQe-4" value="helyszin" style="ellipse;whiteSpace=wrap;html=1;" parent="1" vertex="1">
          <mxGeometry x="610" y="250" width="120" height="80" as="geometry" />
        </mxCell>
        <mxCell id="8Ar69CUbmzMsQiGeCUQe-5" value="oktato" style="ellipse;whiteSpace=wrap;html=1;" parent="1" vertex="1">
          <mxGeometry x="750" y="250" width="120" height="80" as="geometry" />
        </mxCell>
        <mxCell id="8Ar69CUbmzMsQiGeCUQe-6" value="szak" style="ellipse;whiteSpace=wrap;html=1;" parent="1" vertex="1">
          <mxGeometry x="890" y="250" width="120" height="80" as="geometry" />
        </mxCell>
        <mxCell id="8Ar69CUbmzMsQiGeCUQe-8" value="nap" style="ellipse;whiteSpace=wrap;html=1;" parent="1" vertex="1">
          <mxGeometry x="330" y="360" width="120" height="80" as="geometry" />
        </mxCell>
        <mxCell id="8Ar69CUbmzMsQiGeCUQe-9" value="tol" style="ellipse;whiteSpace=wrap;html=1;" parent="1" vertex="1">
          <mxGeometry x="465" y="360" width="120" height="80" as="geometry" />
        </mxCell>
        <mxCell id="8Ar69CUbmzMsQiGeCUQe-10" value="ig" style="ellipse;whiteSpace=wrap;html=1;" parent="1" vertex="1">
          <mxGeometry x="620" y="360" width="120" height="80" as="geometry" />
        </mxCell>
        <mxCell id="yUXptWM5Wb5vwHnEsTBS-1" value="id" style="ellipse;whiteSpace=wrap;html=1;fontStyle=4" vertex="1" parent="1">
          <mxGeometry x="70" y="250" width="120" height="80" as="geometry" />
        </mxCell>
        <mxCell id="yUXptWM5Wb5vwHnEsTBS-5" value="tipus" style="ellipse;whiteSpace=wrap;html=1;fontStyle=0" vertex="1" parent="1">
          <mxGeometry x="200" y="250" width="120" height="80" as="geometry" />
        </mxCell>
      </root>
    </mxGraphModel>
  </diagram>
</mxfile>
